<svg xmlns="http://www.w3.org/2000/svg" width="38" height="31.002" viewBox="0 0 38 31.002">
  <g id="arcade" transform="translate(1785 -474.194)">
    <g id="Off" transform="translate(0 1.111)">
      <path id="Path_37905" data-name="Path 37905" d="M32.448,66.5A1.533,1.533,0,0,1,30.9,64.951v-5.2a1.55,1.55,0,0,1,3.1,0v5.2A1.553,1.553,0,0,1,32.448,66.5Z" transform="translate(-1806.641 431.237)" fill="#9a9a9a"/>
      <path id="Path_37906" data-name="Path 37906" d="M28.8,69.7H22.848a1.55,1.55,0,1,1,0-3.1h5.946a1.533,1.533,0,0,1,1.548,1.548A1.553,1.553,0,0,1,28.8,69.7Z" transform="translate(-1800.014 425.438)" fill="#9a9a9a"/>
      <path id="Path_37907" data-name="Path 37907" d="M74.413,62.449H73.236a.833.833,0,0,1-.836-.836V60.436a.833.833,0,0,1,.836-.836h1.177a.833.833,0,0,1,.836.836v1.177a.833.833,0,0,1-.836.836Z" transform="translate(-1835.288 430.27)" fill="#9a9a9a"/>
      <path id="Path_37908" data-name="Path 37908" d="M94.713,62.449H93.536a.833.833,0,0,1-.836-.836V60.436a.833.833,0,0,1,.836-.836h1.177a.833.833,0,0,1,.836.836v1.177a.833.833,0,0,1-.836.836Z" transform="translate(-1849.302 430.27)" fill="#9a9a9a"/>
      <path id="Path_37909" data-name="Path 37909" d="M74.482,79.149H73.336a.833.833,0,0,1-.836-.836V77.136a.833.833,0,0,1,.836-.836h1.146a.833.833,0,0,1,.836.836v1.146a.86.86,0,0,1-.836.867Z" transform="translate(-1835.357 418.742)" fill="#9a9a9a"/>
      <path id="Path_37910" data-name="Path 37910" d="M94.782,79.149H93.636a.833.833,0,0,1-.836-.836V77.136a.833.833,0,0,1,.836-.836h1.146a.833.833,0,0,1,.836.836v1.146a.86.86,0,0,1-.836.867Z" transform="translate(-1849.371 418.742)" fill="#9a9a9a"/>
      <path id="Path_37911" data-name="Path 37911" d="M52.326,21H41.548a1.55,1.55,0,1,1,0-3.1H52.326a1.533,1.533,0,0,1,1.548,1.548A1.553,1.553,0,0,1,52.326,21Z" transform="translate(-1812.922 459.056)" fill="#fff"/>
      <path id="Path_37912" data-name="Path 37912" d="M33.115,58.766H6.884A5.882,5.882,0,0,1,1,52.882v-9.2A5.882,5.882,0,0,1,6.884,37.8H16.918a1.55,1.55,0,0,1,0,3.1H6.884A2.8,2.8,0,0,0,4.1,43.684v9.2a2.8,2.8,0,0,0,2.787,2.787H33.115A2.8,2.8,0,0,0,35.9,52.882v-9.2A2.8,2.8,0,0,0,33.115,40.9H23.391a1.55,1.55,0,1,1,0-3.1h9.724A5.882,5.882,0,0,1,39,43.684v9.2a5.881,5.881,0,0,1-5.886,5.882Z" transform="translate(-1786 445.319)" fill="#fff"/>
      <path id="Path_37913" data-name="Path 37913" d="M59.348,11.222A1.533,1.533,0,0,1,57.8,9.674V6.948a1.55,1.55,0,0,1,3.1,0V9.674a1.533,1.533,0,0,1-1.552,1.548Z" transform="translate(-1825.21 467.685)" fill="#fff"/>
    </g>
  </g>
</svg>
