<svg xmlns="http://www.w3.org/2000/svg" width="28.926" height="31" viewBox="0 0 28.926 31">
  <g id="casino" transform="translate(1781 -471.196)">
    <g id="Off" transform="translate(-0.867 1.111)">
      <path id="Path_38186" data-name="Path 38186" d="M52.9,28.2a6.057,6.057,0,0,1,6.111-6,6.2,6.2,0,0,1,6.142,6.134A5.231,5.231,0,0,1,65,30.154c-.247.472-4.157-2.386-4.157-2.386Z" transform="translate(-1822.41 453.812)" fill="#9a9a9a"/>
      <path id="Path_38187" data-name="Path 38187" d="M56.13,21.959a1.414,1.414,0,0,1-1.43-1.428V5.968a2.548,2.548,0,0,0-2.57-2.513H39.225a2.529,2.529,0,0,0-2.57,2.513V5.9a1.428,1.428,0,0,1-2.855,0v.067A5.393,5.393,0,0,1,39.225.6H52.132a5.393,5.393,0,0,1,5.425,5.368V20.531a1.432,1.432,0,0,1-1.427,1.428Z" transform="translate(-1808.764 469.485)" fill="#fff"/>
      <path id="Path_38188" data-name="Path 38188" d="M40.056,56.7h-.2A2.041,2.041,0,0,0,37.8,58.727v.2a2.041,2.041,0,0,0,2.056,2.027h.2a2.041,2.041,0,0,0,2.056-2.027v-.2A2.041,2.041,0,0,0,40.056,56.7Z" transform="translate(-1811.622 428.73)" fill="#9a9a9a"/>
      <path id="Path_38189" data-name="Path 38189" d="M61.956,56.7h-.2A2.041,2.041,0,0,0,59.7,58.727v.2a2.041,2.041,0,0,0,2.056,2.027h.2a2.041,2.041,0,0,0,2.056-2.027v-.2A2.023,2.023,0,0,0,61.956,56.7Z" transform="translate(-1827.269 428.73)" fill="#9a9a9a"/>
      <path id="Path_38190" data-name="Path 38190" d="M39.956,78.7h-.2A2.041,2.041,0,0,0,37.7,80.727v.2a2.041,2.041,0,0,0,2.056,2.027h.2a2.041,2.041,0,0,0,2.056-2.027v-.2A2.041,2.041,0,0,0,39.956,78.7Z" transform="translate(-1811.551 413.012)" fill="#9a9a9a"/>
      <path id="Path_38191" data-name="Path 38191" d="M61.956,79h-.2A2.041,2.041,0,0,0,59.7,81.027v.2a2.041,2.041,0,0,0,2.056,2.027h.2a2.041,2.041,0,0,0,2.056-2.027v-.2A2.041,2.041,0,0,0,61.956,79Z" transform="translate(-1827.269 412.797)" fill="#9a9a9a"/>
      <path id="Path_38192" data-name="Path 38192" d="M33.489,59.43H21.125A5.423,5.423,0,0,1,15.7,54V43.725A5.423,5.423,0,0,1,21.125,38.3H33.489a5.423,5.423,0,0,1,5.425,5.425V54a5.423,5.423,0,0,1-5.425,5.43ZM21.125,41.155a2.559,2.559,0,0,0-2.57,2.57V54a2.559,2.559,0,0,0,2.57,2.57H33.489A2.559,2.559,0,0,0,36.059,54V43.725a2.559,2.559,0,0,0-2.57-2.57Z" transform="translate(-1795.833 441.655)" fill="#fff"/>
    </g>
  </g>
</svg>
