<svg xmlns="http://www.w3.org/2000/svg" width="44.625" height="48.87" viewBox="0 0 44.625 48.87">
  <g id="Layer_2" data-name="Layer 2" transform="translate(0.018 -0.005)">
    <g id="Layer_1" data-name="Layer 1">
      <path id="Path_1" data-name="Path 1" d="M41.42,32.84a14.29,14.29,0,0,1-8.55,6.92,2.62,2.62,0,0,0-1.74,1.48c-.8,1.78-1.59,3.55-2.38,5.33l-.43.94c-.36-3.47-1-6.63-3.72-9" fill="none" stroke="#fff" stroke-linecap="round" stroke-linejoin="round" stroke-width="2.73"/>
      <path id="Path_2" data-name="Path 2" d="M26.52,24.74l2.54-3.3a7,7,0,0,0,.92-3,4.34,4.34,0,0,0,.07-1.57l-1,.22a16.11,16.11,0,0,1,3.42-8.37l-.12-.12a18.49,18.49,0,0,0-2,2.3,2,2,0,0,1-2.15,1,7,7,0,0,1-.8-.11,6.62,6.62,0,0,1-3.8-2.48,21,21,0,0,0,2.24-.72,4.77,4.77,0,0,1,2.81-.69c-1.55-1.08-2.14-2.16-2-3.65a5.68,5.68,0,0,1,4.76.28L29.88,2.08A5.82,5.82,0,0,1,33,1.64a4.24,4.24,0,0,1,2.62,1.59l-.81-1.86c3.33.46,4.9,2.44,5.29,5.53a3.71,3.71,0,0,1,2.9.83,2.48,2.48,0,0,1-.36.24c-2,1-2.71,2.54-2.18,4.93a12.75,12.75,0,0,0,1.32,3.25c.12.22.22.45.34.68L42,17l-1.64-1c.18.39.3.62.39.86.52,1.28,1.11,2.54,1.53,3.86a18.27,18.27,0,0,1,.88,4.58" fill="none" stroke="#fff" stroke-linecap="round" stroke-linejoin="round" stroke-width="2.73"/>
      <path id="Path_3" data-name="Path 3" d="M36.7,6.13a1.32,1.32,0,0,0-1.32,1.39A1.38,1.38,0,0,0,36.73,8.7,1.46,1.46,0,0,0,38,7.35,1.39,1.39,0,0,0,36.7,6.13Z" fill="#9a9a9a"/>
      <path id="Path_4" data-name="Path 4" d="M21.73,20.39A10.146,10.146,0,0,1,13.64,39a6.08,6.08,0,0,1-3.13-8l.82-1.87-1.88-.81A5.89,5.89,0,0,1,6.25,25a6.06,6.06,0,0,1,.06-4.69l.8-1.85L5,17.53a6.08,6.08,0,0,1-3.63-6Z" fill="none" stroke="#fff" stroke-miterlimit="10" stroke-width="2.73"/>
      <circle id="Ellipse_1" data-name="Ellipse 1" cx="3.83" cy="3.83" r="3.83" transform="translate(14.58 28.34)" fill="#9a9a9a"/>
    </g>
  </g>
</svg>
