<?xml version="1.0" encoding="utf-8"?>
<!-- Generator: Adobe Illustrator 16.0.0, SVG Export Plug-In . SVG Version: 6.00 Build 0)  -->
<!DOCTYPE svg PUBLIC "-//W3C//DTD SVG 1.1//EN" "http://www.w3.org/Graphics/SVG/1.1/DTD/svg11.dtd">
<svg version="1.1" id="Layer_1" xmlns="http://www.w3.org/2000/svg" xmlns:xlink="http://www.w3.org/1999/xlink" x="0px" y="0px"
	 width="28px" height="28px" viewBox="0 0 28 28" enable-background="new 0 0 28 28" xml:space="preserve">
<g id="Group_23350">
	<path id="Path_41840" fill="none" d="M0,0v28h28V0H0z M24.01,11.58c-0.01,0.02-0.02,0.05-0.029,0.07
		c-0.011,0.02-0.011,0.01-0.011,0.02c-0.12,0.194-0.374,0.256-0.569,0.14c-0.121-0.076-0.192-0.208-0.19-0.35
		c-0.002-0.099,0.034-0.196,0.101-0.27c0.939-2.196,1.211-4.621,0.779-6.97l-0.01-0.06l-0.051-0.11L23.9,3.93L23.84,3.92
		c-0.73-0.147-1.475-0.221-2.22-0.22h-0.091c-3.214,0.003-6.292,1.301-8.539,3.6c-1.49,1.517-2.799,3.201-3.9,5.02
		C9.065,12.293,9.034,12.273,9,12.26c-0.041-0.028-0.091-0.039-0.14-0.03c-0.106-0.003-0.208,0.041-0.28,0.12l-0.01,0.01
		c-0.071,0.076-0.11,0.176-0.11,0.28c-0.001,0.103,0.043,0.202,0.12,0.27v0.01l0.11,0.1v0.01c-0.55,0.941-0.948,1.964-1.18,3.03
		l-0.01,0.1l4.15,4.279l0.1-0.02c1.119-0.2,2.197-0.586,3.189-1.14v0.01h0.01l0.131,0.13c0.065,0.063,0.15,0.102,0.24,0.11h0.039
		c0.109-0.001,0.213-0.044,0.291-0.12c0.137-0.145,0.142-0.371,0.01-0.52V18.88c1.785-1.054,3.438-2.319,4.92-3.771l0.01,0.011
		c0.066-0.126,0.198-0.203,0.34-0.2c0.222,0.012,0.398,0.188,0.41,0.41c-0.001,0.099-0.036,0.194-0.1,0.27L21.22,15.62
		c-0.79,0.771-1.628,1.487-2.51,2.149c-0.011-0.023-0.024-0.047-0.04-0.069v-0.011c-0.084-0.092-0.197-0.152-0.32-0.17
		c-0.01,0-0.01,0-0.02,0.011c-0.049-0.001-0.097,0.009-0.141,0.03c-0.051,0.018-0.096,0.049-0.13,0.09
		c-0.032,0.029-0.056,0.068-0.069,0.109c-0.028,0.037-0.043,0.084-0.041,0.131l-0.039,0.469c-1.378,1.002-2.868,1.838-4.44,2.49
		c-0.038-0.186-0.201-0.318-0.39-0.319c-0.11-0.005-0.216,0.038-0.29,0.12c-0.076,0.074-0.119,0.174-0.12,0.279v0.19
		c-0.35,0.102-0.708,0.172-1.07,0.21h-0.03c-0.106-0.002-0.209-0.041-0.29-0.109L6.77,16.7c-0.084-0.085-0.128-0.201-0.12-0.319
		c0.042-0.361,0.108-0.719,0.2-1.07h0.22c0.106,0.002,0.209-0.041,0.28-0.121c0.076-0.073,0.119-0.174,0.12-0.279l-0.09-0.25
		c-0.032-0.035-0.069-0.066-0.11-0.09c-0.039-0.027-0.083-0.044-0.13-0.051C7.773,12.95,8.599,11.465,9.6,10.1v-0.01H9.62
		l0.479-0.04c0.052-0.004,0.103-0.018,0.15-0.04c0.02-0.01,0.04-0.03,0.06-0.04c0.024-0.015,0.045-0.035,0.06-0.06
		c0.034-0.032,0.059-0.074,0.07-0.12c0.03-0.055,0.041-0.118,0.03-0.18c-0.005-0.077-0.033-0.15-0.08-0.21
		c-0.025-0.031-0.055-0.059-0.09-0.08c-0.027-0.02-0.058-0.033-0.09-0.04V9.27H10.2c0.686-0.89,1.423-1.738,2.21-2.54
		c2.4-2.441,5.676-3.821,9.1-3.83h0.21c0.935-0.001,1.864,0.113,2.771,0.34c0.127,0.042,0.227,0.143,0.27,0.27
		C25.392,6.21,25.128,9.042,24.01,11.58L24.01,11.58z M20.221,10.04c-0.004,0.591-0.237,1.158-0.65,1.58
		c-0.422,0.429-1,0.667-1.6,0.66c-1.248,0.001-2.26-1.009-2.261-2.256c0-0.001,0-0.002,0-0.004c0.013-1.243,1.018-2.247,2.261-2.26
		h0.01c1.246,0.01,2.25,1.029,2.24,2.276C20.22,10.037,20.22,10.039,20.221,10.04L20.221,10.04z"/>
</g>
<g id="Group_23351">
	<path id="Path_41841" fill="#FFFFFF" d="M7.135,14.525c-0.11,0.27-0.2,0.529-0.28,0.791h0.21c0.221,0,0.4-0.18,0.4-0.4l0,0l0,0
		C7.468,14.722,7.327,14.555,7.135,14.525z M8.855,12.235c-0.221,0.003-0.397,0.185-0.394,0.406l0,0
		c0.001,0.103,0.042,0.201,0.114,0.274l0.11,0.11c0.12-0.23,0.26-0.46,0.4-0.7c-0.058-0.065-0.143-0.1-0.23-0.094V12.235z
		 M10.205,9.275c-0.2,0.27-0.41,0.541-0.6,0.821l0.5-0.041c0.221-0.024,0.384-0.218,0.37-0.44c-0.014-0.158-0.12-0.292-0.27-0.343
		V9.275z M13.075,20.535c-0.221,0-0.4,0.18-0.4,0.4l0,0l0,0v0.19c0.267-0.077,0.53-0.167,0.79-0.271
		c-0.032-0.189-0.198-0.326-0.39-0.324L13.075,20.535z M15.654,18.886c-0.239,0.149-0.479,0.28-0.719,0.399l0.14,0.141
		c0.065,0.063,0.149,0.101,0.239,0.109h0.041c0.108,0.002,0.213-0.041,0.289-0.119c0.146-0.147,0.15-0.383,0.01-0.535V18.886z
		 M18.667,17.693c-0.081-0.096-0.195-0.158-0.319-0.172c-0.211,0-0.385,0.161-0.4,0.371l-0.04,0.469c0.27-0.189,0.54-0.379,0.8-0.59
		c-0.007-0.03-0.021-0.059-0.04-0.084V17.693z"/>
</g>
<g id="Group_23352">
	<path id="Path_41842" fill="#9A9A9A" d="M20.141,7.86c-1.191-1.196-3.125-1.2-4.321-0.009c-0.577,0.574-0.9,1.355-0.899,2.169
		c-0.01,0.811,0.312,1.591,0.891,2.16c0.568,0.58,1.348,0.904,2.16,0.9h0.02c1.688-0.003,3.053-1.374,3.049-3.061
		C21.038,9.209,20.715,8.432,20.141,7.86L20.141,7.86z M19.57,11.62c-0.422,0.429-1,0.667-1.6,0.66
		c-1.248,0.001-2.26-1.009-2.261-2.256c0-0.001,0-0.003,0-0.004c0.013-1.243,1.018-2.247,2.261-2.26h0.01
		c1.253,0.017,2.256,1.046,2.239,2.3C20.213,10.644,19.979,11.203,19.57,11.62L19.57,11.62z"/>
	<path id="Path_41883" fill="#9A9A9A" d="M20.22,10.04c-0.003,0.591-0.236,1.158-0.649,1.58c-0.422,0.429-1,0.667-1.601,0.66
		c-1.247,0.001-2.259-1.009-2.26-2.256c0-0.001,0-0.003,0-0.004c0.013-1.243,1.017-2.247,2.26-2.26h0.011
		c1.246,0.01,2.25,1.029,2.24,2.276C20.22,10.037,20.22,10.039,20.22,10.04z"/>
</g>
<g id="Group_23353">
	<path id="Path_41884" fill="#FFFFFF" d="M15.352,20.031c-0.23-0.006-0.451-0.094-0.623-0.25L8.22,13.263
		c-0.349-0.354-0.344-0.924,0.01-1.273c0.166-0.163,0.388-0.255,0.621-0.258l0,0c0.134-0.001,0.267,0.029,0.387,0.089h0.058
		l0.2,0.186l6.638,6.638l0.005,0.059c0.193,0.344,0.138,0.775-0.138,1.058c-0.169,0.173-0.401,0.271-0.644,0.271H15.352z"/>
</g>
<g id="Group_23354">
	<path id="Path_41885" fill="#FFFFFF" d="M13.075,25.602c-0.497,0-0.9-0.402-0.9-0.899v-0.001v-3.768
		c0.001-0.498,0.404-0.9,0.901-0.9c0.385,0.001,0.727,0.246,0.851,0.611l0.053,0.08v2.461l2.543-1.373
		c0.367-0.193,0.612-0.561,0.649-0.976l0.271-2.985c0.037-0.469,0.43-0.83,0.9-0.828c0.27,0.016,0.521,0.141,0.699,0.346
		l0.078,0.092l0.03,0.089c0.085,0.155,0.114,0.335,0.081,0.509l-0.264,2.948c-0.082,1.019-0.679,1.924-1.582,2.399l-3.874,2.086
		c-0.129,0.07-0.273,0.107-0.42,0.111h-0.018V25.602z"/>
</g>
<g id="Group_23355">
	<path id="Path_41886" fill="#FFFFFF" d="M3.288,15.813c-0.434-0.004-0.804-0.316-0.88-0.744l-0.013-0.025v-0.122
		c0.002-0.15,0.04-0.298,0.108-0.432l2.093-3.884c0.477-0.903,1.382-1.5,2.4-1.581l3.028-0.281c0.127-0.003,0.253,0.019,0.372,0.065
		c0.324,0.118,0.55,0.413,0.58,0.757c0.037,0.492-0.32,0.925-0.81,0.984l-0.178,0.014L9.652,10.6l-2.49,0.22
		c-0.412,0.034-0.779,0.274-0.974,0.638l-1.374,2.554h2.349l0.061,0.017c0.488,0.096,0.806,0.569,0.71,1.057
		c-0.082,0.416-0.442,0.718-0.866,0.727h-3.77l-0.007-0.5L3.288,15.813z"/>
</g>
<g id="Group_23356">
	<path id="Path_41887" fill="#FFFFFF" d="M3.667,21.459c-0.497,0.002-0.901-0.4-0.902-0.898c0-0.242,0.097-0.475,0.271-0.645
		l1.7-1.7c0.353-0.352,0.924-0.351,1.276,0.001c0.352,0.354,0.351,0.924-0.002,1.275l0,0l-1.7,1.701
		c-0.125,0.125-0.285,0.211-0.458,0.246l-0.023,0.015L3.667,21.459z"/>
</g>
<g id="Group_23357">
	<path id="Path_41888" fill="#FFFFFF" d="M4.039,24.848c-0.497,0-0.9-0.403-0.9-0.9c0-0.242,0.097-0.473,0.27-0.643L6.614,20.1
		c0.352-0.353,0.923-0.354,1.276-0.002s0.354,0.924,0.002,1.276l-3.208,3.207c-0.169,0.17-0.398,0.266-0.638,0.266L4.039,24.848z"/>
</g>
<g id="Group_23358">
	<path id="Path_41889" fill="#FFFFFF" d="M7.347,25.229l-0.022-0.008c-0.495-0.053-0.853-0.495-0.8-0.99
		c0.022-0.207,0.115-0.4,0.264-0.547l1.7-1.699c0.324-0.326,0.841-0.355,1.2-0.069l0.019,0.011l0.057,0.057
		c0.353,0.349,0.356,0.918,0.008,1.271l-1.706,1.709c-0.168,0.17-0.397,0.266-0.636,0.266H7.347z"/>
</g>
<path id="Path_41849" fill="#FFFFFF" d="M11.575,21.831c-0.229,0-0.45-0.083-0.622-0.235l-4.532-4.541
	c-0.195-0.188-0.292-0.457-0.263-0.727c0.04-0.389,0.111-0.771,0.214-1.148l0.07-0.258H6.434l0.029-0.072l0.01-0.037l0,0l0.2-0.478
	c0.631-1.559,1.448-3.036,2.432-4.4v-0.3l0.481-0.049l-0.2-0.067l0.423-0.555c0.694-0.911,1.445-1.775,2.251-2.589
	c2.493-2.531,5.893-3.963,9.445-3.978h0.211c0.976-0.002,1.946,0.117,2.892,0.355c0.301,0.083,0.537,0.313,0.627,0.611
	c0.66,2.813,0.391,5.764-0.769,8.41v0.031l-0.092,0.151c-0.274,0.42-0.837,0.538-1.257,0.264c-0.258-0.168-0.412-0.456-0.411-0.764
	c0.001-0.186,0.059-0.367,0.163-0.521c0.878-2.066,1.135-4.344,0.738-6.554c-0.647-0.122-1.305-0.184-1.963-0.185l-0.119-0.5v0.5
	c-3.078,0.013-6.023,1.255-8.183,3.451c-1.462,1.489-2.748,3.143-3.83,4.928L9.3,12.926l0.009,0.009l-0.192,0.331
	c-0.491,0.852-0.856,1.77-1.085,2.725l3.783,3.9c1.008-0.197,1.979-0.553,2.875-1.055l0.33-0.184l0.008,0.008l0.375-0.221
	c1.752-1.029,3.372-2.27,4.822-3.693l0.022-0.022c0.036-0.042,0.075-0.081,0.118-0.116l0.213-0.209l0.06,0.06
	c0.09-0.031,0.185-0.046,0.279-0.046c0.503-0.004,0.915,0.401,0.92,0.905c0.002,0.221-0.076,0.434-0.22,0.602
	c-0.817,0.809-1.689,1.559-2.611,2.246l-0.592,0.439l-0.02-0.074l-0.009,0.094l-0.185,0.134c-1.41,1.022-2.935,1.878-4.542,2.548
	l-0.573,0.238l-0.005-0.028l-0.264,0.077c-0.379,0.111-0.767,0.188-1.16,0.227h-0.025L11.575,21.831z"/>
</svg>
