<svg xmlns="http://www.w3.org/2000/svg" width="31" height="31" viewBox="0 0 31 31">
  <g id="e-sports" transform="translate(-5889 -4962)">
    <rect id="Rectangle_21548" data-name="Rectangle 21548" width="31" height="31" transform="translate(5889 4962)" fill="#fff" opacity="0"/>
    <g id="e-sports-active" transform="translate(8435.889 4963.141)">
      <g id="Group_22435" data-name="Group 22435" transform="translate(-2546.888 -0.711)">
        <g id="Group_22434" data-name="Group 22434" transform="translate(0 10.674)">
          <g id="Group_22433" data-name="Group 22433" transform="translate(6.121 3.745)">
            <g id="Group_22432" data-name="Group 22432">
              <path id="Path_39310" data-name="Path 39310" d="M-2535.643,13.967v.906c-.016.328-.148.477-.494.488h-1.221c-.366,0-.427.083-.427.444,0,.428-.017.855-.033,1.3a.34.34,0,0,1-.094.275.342.342,0,0,1-.272.1c-.4.017-.774.017-1.154,0-.262,0-.394-.164-.394-.46-.017-.413,0-.807,0-1.221-.017-.378-.083-.444-.461-.444h-1.152c-.4-.016-.527-.148-.527-.526v-.906c0-.366.116-.512.478-.512h1.221c.345,0,.427-.1.427-.411.017-.4,0-.79.017-1.185s.115-.543.526-.543h.906c.347,0,.494.148.511.488v.659h-.017v.593c-.016.264.1.394.366.394h1.235C-2535.8,13.422-2535.643,13.554-2535.643,13.967Z" transform="translate(2541.874 -11.061)" fill="#9a9a9a"/>
              <g id="Group_22431" data-name="Group 22431" transform="translate(12.231)">
                <path id="Path_39311" data-name="Path 39311" d="M-2527.531,12.321a1.169,1.169,0,0,1-.343.834,1.17,1.17,0,0,1-.834.343,1.176,1.176,0,0,1-.846-.337,1.176,1.176,0,0,1-.351-.84,1.206,1.206,0,0,1,1.177-1.221A1.221,1.221,0,0,1-2527.531,12.321Z" transform="translate(2532.286 -11.1)" fill="#9a9a9a"/>
                <path id="Path_39312" data-name="Path 39312" d="M-2529.48,14.285a1.162,1.162,0,0,1-.34.838,1.16,1.16,0,0,1-.838.339,1.18,1.18,0,0,1-.851-.346,1.18,1.18,0,0,1-.345-.851,1.228,1.228,0,0,1,1.178-1.2A1.21,1.21,0,0,1-2529.48,14.285Z" transform="translate(2531.855 -10.665)" fill="#9a9a9a"/>
                <path id="Path_39313" data-name="Path 39313" d="M-2527.531,16.156a1.21,1.21,0,0,1-1.2,1.159,1.205,1.205,0,0,1-1.177-1.159,1.157,1.157,0,0,1,.323-.867,1.157,1.157,0,0,1,.854-.354,1.162,1.162,0,0,1,.866.348,1.16,1.16,0,0,1,.33.873Z" transform="translate(2532.285 -10.253)" fill="#9a9a9a"/>
                <path id="Path_39314" data-name="Path 39314" d="M-2525.567,14.266a1.181,1.181,0,0,1-.346.851,1.18,1.18,0,0,1-.851.346,1.2,1.2,0,0,1-1.2-1.177,1.239,1.239,0,0,1,1.221-1.221,1.221,1.221,0,0,1,1.172,1.2Z" transform="translate(2532.715 -10.666)" fill="#9a9a9a"/>
              </g>
              <path id="Path_39315" data-name="Path 39315" d="M-2532.621,13.465a.465.465,0,0,1-.462.449h-1.709a.463.463,0,0,1-.336-.13.462.462,0,0,1-.14-.332.452.452,0,0,1,.112-.338.451.451,0,0,1,.322-.151c.6-.013,1.191-.013,1.794,0a.446.446,0,0,1,.319.16.444.444,0,0,1,.1.342Z" transform="translate(2543.332 -10.691)" fill="#9a9a9a"/>
            </g>
          </g>
          <path id="Path_39316" data-name="Path 39316" d="M-2515.907,23.266a19.354,19.354,0,0,0-.331-2.956v-.092l-.045-.171a.984.984,0,0,0-.958-.719.991.991,0,0,0-.993.977l.011.092s.034.137.045.16c0,0,0,.148.023.16a17.9,17.9,0,0,1,.285,3.354,2.5,2.5,0,0,1-.115.719.873.873,0,0,1-.733.673,2.869,2.869,0,0,1-.536.057,2.784,2.784,0,0,1-1.415-.4,8.763,8.763,0,0,1-2.465-2.168c-.2-.244-.386-.513-.581-.788q-.343-.5-.719-.958a3.314,3.314,0,0,0-2.647-1.289h-8.613a3.324,3.324,0,0,0-2.647,1.3c-.148.171-.274.353-.41.536l-.251.331c-.205.3-.422.582-.638.855a8.485,8.485,0,0,1-2.476,2.179,2.847,2.847,0,0,1-1.392.4,2.752,2.752,0,0,1-.536-.057.861.861,0,0,1-.732-.673,2.487,2.487,0,0,1-.114-.719,18.124,18.124,0,0,1,.479-4.369,21.567,21.567,0,0,1,1.724-5.127,2.567,2.567,0,0,1,.148-.32.045.045,0,0,0,.01-.034c.161-.3.32-.582.489-.845l.034-.056a3.237,3.237,0,0,1,.32-.48,3.429,3.429,0,0,1,.3-.4,5.522,5.522,0,0,1,.6-.685c.046-.045.081-.079.149-.137a5.622,5.622,0,0,1,.488-.422l.034-.034a5.356,5.356,0,0,1,.479-.331,5.168,5.168,0,0,1,1.312-.627,3.412,3.412,0,0,1,.913-.148h.1c.182,0,.353,0,.479-.011h2.659l1.014.011h2.9c1.181,0,2.364-.013,3.54-.022a6.923,6.923,0,0,1,2.63.311,6.4,6.4,0,0,1,2.1,1.422,9.345,9.345,0,0,1,1.746,2.487,19.435,19.435,0,0,1,1.016,2.362.435.435,0,0,0,.057.148.989.989,0,0,0,.9.582.994.994,0,0,0,.993-.992l-.011-.138a2.058,2.058,0,0,0-.122-.366A20.246,20.246,0,0,0-2518.666,13a11.412,11.412,0,0,0-1.575-2.259l-.16-.183a7.77,7.77,0,0,0-1.289-1.109,7.34,7.34,0,0,0-2.406-1.191,11.491,11.491,0,0,0-3.053-.2c-.732.01-1.471,0-2.207,0h-4.226c-1.153,0-2.307-.023-3.461,0h-.193a2.293,2.293,0,0,0-.275.011c-.034,0-.056.011-.09.011-.137.012-.286.023-.422.046a7.311,7.311,0,0,0-3.081,1.289.562.562,0,0,0-.091.068,2.59,2.59,0,0,0-.354.273.62.62,0,0,0-.137.122,3.945,3.945,0,0,0-.4.366c-.149.148-.262.262-.331.342l-.1.115c-.122.148-.251.3-.331.41a1.656,1.656,0,0,0-.16.194,5.45,5.45,0,0,0-.388.525c-.1.148-.2.3-.3.457a8.186,8.186,0,0,0-.456.775,24.2,24.2,0,0,0-2.327,6.913,21.825,21.825,0,0,0-.4,3.275,6.7,6.7,0,0,0,.17,1.985,2.725,2.725,0,0,0,1.494,1.882,3.826,3.826,0,0,0,1.666.366,4.536,4.536,0,0,0,1.278-.183,6.69,6.69,0,0,0,2.383-1.323A12.28,12.28,0,0,0-2537.954,24s.936-1.278,1.106-1.506a1.465,1.465,0,0,1,1.268-.61h.181c.924.011,1.848.022,2.772.022l1.244-.011,1.243.011c.913,0,1.837-.011,2.75-.022h.228a1.4,1.4,0,0,1,1.221.61l1.13,1.507a10.879,10.879,0,0,0,1.917,1.985,6.581,6.581,0,0,0,2.384,1.334,4.742,4.742,0,0,0,1.29.183,3.846,3.846,0,0,0,1.654-.366,2.747,2.747,0,0,0,1.494-1.871,6.364,6.364,0,0,0,.164-1.995Z" transform="translate(2546.888 -8.032)" fill="#fff"/>
        </g>
        <path id="Path_39317" data-name="Path 39317" d="M-2544.794,12.69c-.054-.137-.1-.275-.151-.415a9.717,9.717,0,0,1,.453-7.482,9.734,9.734,0,0,1,5.608-4.967,9.642,9.642,0,0,1,3.174-.536,9.8,9.8,0,0,1,9.269,6.592,9.9,9.9,0,0,1,.51,2.54l-.324-.007-.273.013h-1a6.825,6.825,0,0,0-.14-.977l-.06-.267-3.653,1.261-4.9-.011,2.427-.846-.1-.244a18.622,18.622,0,0,0-1-2.029l-.111-.192-.2.093a17.767,17.767,0,0,1-1.653.663c-.411.137-1.05.341-1.793.516l-.216.051.03.221a14.768,14.768,0,0,0,.366,1.8c-.093.009-.186.02-.275.034a7.026,7.026,0,0,0-.969.214l-.17.049-.153.056c-.139-.547-.257-1.143-.366-1.849l-.037-.236-.237.032a16.4,16.4,0,0,1-2.141.144l-.7-.016-.048.189a8.341,8.341,0,0,0-.075,3.61l.054.275.366-.122c-.164.164-.288.289-.366.377l-.106.122a5.253,5.253,0,0,0-.366.463,1.6,1.6,0,0,0-.167.2,5.8,5.8,0,0,0-.387.521Zm13.755-10.107a18.371,18.371,0,0,1-2.385,1.7l-.205.122.122.208a18.547,18.547,0,0,1,1.1,2.24l.085.214,4.087-1.4-.122-.244a8.369,8.369,0,0,0-2.372-2.847l-.156-.122Zm-9.964.27a8.492,8.492,0,0,0-1.747,2.1l-.227.387.448-.02a15.461,15.461,0,0,0,1.663-.149l.212-.034V4.924a16.214,16.214,0,0,1,.059-1.864l.057-.61Zm2.3-1.372-.029.122a12.615,12.615,0,0,0-.325,2.93v.322l.31-.087c.442-.122.886-.259,1.305-.394a12.659,12.659,0,0,0,1.205-.472l.289-.122-.2-.244a13.165,13.165,0,0,0-2.052-2.114l-.112-.093Zm2.78-.165a14.315,14.315,0,0,1,1.3,1.548l.123.177.19-.11a13.991,13.991,0,0,0,1.6-1.068l.347-.267-.409-.154a8.365,8.365,0,0,0-2.93-.541h-.577Z" transform="translate(2547.197 0.711)" fill="#fff"/>
      </g>
    </g>
  </g>
</svg>
