<svg xmlns="http://www.w3.org/2000/svg" width="27.473" height="31.003" viewBox="0 0 27.473 31.003">
  <g id="hot-games" transform="translate(1780 -471.199)">
    <g id="Off" transform="translate(-1792.068 471.052)">
      <g id="Group_21907" data-name="Group 21907" transform="translate(12.069 0.145)">
        <g id="Group_21904" data-name="Group 21904" transform="translate(5.787 5.381)">
          <path id="Path_38778" data-name="Path 38778" d="M46.831,30.2a5.957,5.957,0,0,1,1.734,3.99,7.733,7.733,0,0,1-15.466,0,7.569,7.569,0,0,1,1.128-3.99l1.293-1.651,1.734-1.679,2.587-2.834A7.223,7.223,0,0,0,41.383,19.8a7.533,7.533,0,0,1,3.908,5.366,5.941,5.941,0,0,1-.165,2.779Z" transform="translate(-33.1 -19.8)" fill="#9a9a9a"/>
        </g>
        <g id="Group_21905" data-name="Group 21905" transform="translate(15.057 8.416)">
          <path id="Path_38779" data-name="Path 38779" d="M69.183,53.414a5.107,5.107,0,0,1-1.293-.11,1.361,1.361,0,0,1-1.073-1.624,1.382,1.382,0,0,1,1.624-1.073,6.045,6.045,0,0,0,4.43-1.128c1.954-1.431,3.165-4.1,3.577-7.925a12.717,12.717,0,0,0-2.091-7.54c-.5,2.587-1.486,5.834-3.495,7.732a1.383,1.383,0,1,1-1.9-2.009c1.238-1.183,2.229-3.577,2.779-6.769a2.533,2.533,0,0,1,1.9-2.064,2.49,2.49,0,0,1,2.587.936,15.257,15.257,0,0,1,2.944,9.96c-.523,4.651-2.119,7.98-4.733,9.879a8.709,8.709,0,0,1-5.256,1.735Z" transform="translate(-66.784 -30.83)" fill="#fff"/>
        </g>
        <g id="Group_21906" data-name="Group 21906">
          <path id="Path_38780" data-name="Path 38780" d="M20.855,31.035a2.984,2.984,0,0,1-1.431-.357c-3.137-1.567-6.962-5.086-7.347-12.894-.028-.55-.275-6.048,5.614-11.272.5-.44.963-.852,1.458-1.292a37.4,37.4,0,0,0,3.963-3.74A3.351,3.351,0,0,1,26.084.16a3.271,3.271,0,0,1,2.642,1.925h0c1.513,3.244,3.165,9.65-2.889,15.891l-.22.22c-.578.5-3.385,3.244-1.624,8.138a3.54,3.54,0,0,1-.963,3.849,3.2,3.2,0,0,1-2.175.852Zm4.9-28.125a.523.523,0,0,0-.44.247,34.522,34.522,0,0,1-4.348,4.151C20.5,7.72,20,8.16,19.509,8.573,14.526,13,14.8,17.4,14.829,17.591v.055c.248,5.224,2.229,8.8,5.834,10.612a.438.438,0,0,0,.523-.082.8.8,0,0,0,.22-.88,10.017,10.017,0,0,1,2.422-11.135c.028,0,.028-.027.055-.055,4.651-4.811,3.852-9.623,2.367-12.812h0a.616.616,0,0,0-.44-.357.085.085,0,0,0-.056-.028Z" transform="translate(-12.069 -0.145)" fill="#fff"/>
        </g>
      </g>
    </g>
  </g>
</svg>
