<svg xmlns="http://www.w3.org/2000/svg" width="30.93" height="30.93" viewBox="0 0 30.93 30.93">
  <g id="others" transform="translate(2524 1318.802)">
    <g id="Off" transform="translate(-742.035 -1788.611)">
      <path id="Path_38828" data-name="Path 38828" d="M9.534,0A9.534,9.534,0,1,1,0,9.534,9.534,9.534,0,0,1,9.534,0Z" transform="translate(-1776.034 475.739)" fill="#9a9a9a"/>
      <path id="Path_38179" data-name="Path 38179" d="M20.392,31.23h-.055A15.465,15.465,0,1,1,35.83,15.765a1.371,1.371,0,1,1-2.742,0,12.723,12.723,0,1,0-12.723,12.7A13.257,13.257,0,0,0,31.415,21.9l.576-1.215a1.367,1.367,0,0,1,1.837-.635,1.385,1.385,0,0,1,.631,1.85L33.8,23.249A16.023,16.023,0,0,1,20.392,31.23Z" transform="translate(-1786.865 469.509)" fill="#fff"/>
      <path id="Path_38180" data-name="Path 38180" d="M48.269,46.253a3.585,3.585,0,0,1-1.463-1.266,3.529,3.529,0,0,1-.506-1.913V42.85a3.3,3.3,0,0,1,.534-1.828,3.526,3.526,0,0,1,1.434-1.294,3.261,3.261,0,0,1-1.238-1.069,2.678,2.678,0,0,1-.478-1.491v-.337a3.511,3.511,0,0,1,.478-1.8,3.317,3.317,0,0,1,1.35-1.209,5.207,5.207,0,0,1,4.106,0,2.981,2.981,0,0,1,1.35,1.209,3.438,3.438,0,0,1,.478,1.8v.337a2.61,2.61,0,0,1-.478,1.491,3.149,3.149,0,0,1-1.266,1.069,3.624,3.624,0,0,1,1.463,1.294A3.328,3.328,0,0,1,54.6,42.85v.225a3.6,3.6,0,0,1-.506,1.913,3.413,3.413,0,0,1-1.463,1.266,4.852,4.852,0,0,1-2.194.45A5.706,5.706,0,0,1,48.269,46.253Zm3.066-2.138a1.624,1.624,0,0,0,.591-.562,1.718,1.718,0,0,0,.225-.844V42.6a1.345,1.345,0,0,0-.225-.759,1.3,1.3,0,0,0-.591-.506,2.1,2.1,0,0,0-.872-.2,1.736,1.736,0,0,0-.872.2,1.494,1.494,0,0,0-.591.506,1.439,1.439,0,0,0-.225.788v.141a1.718,1.718,0,0,0,.225.844,1.424,1.424,0,0,0,.591.563,1.736,1.736,0,0,0,.872.2,2.857,2.857,0,0,0,.871-.261Zm-.141-5.569a1.454,1.454,0,0,0,.506-.506,1.712,1.712,0,0,0,.169-.787v-.112a1.557,1.557,0,0,0-.169-.731,1.191,1.191,0,0,0-.506-.478,1.557,1.557,0,0,0-.731-.169,1.479,1.479,0,0,0-.731.169,1.378,1.378,0,0,0-.506.478,1.48,1.48,0,0,0-.169.731v.141a1.675,1.675,0,0,0,.169.759,1.1,1.1,0,0,0,.506.506,1.573,1.573,0,0,0,.731.2,1.239,1.239,0,0,0,.731-.2Z" transform="translate(-1817.016 445.427)" fill="#fff"/>
    </g>
  </g>
</svg>
