<svg xmlns="http://www.w3.org/2000/svg" width="24.404" height="31" viewBox="0 0 24.404 31">
  <g id="poker" transform="translate(1761 -474.197)">
    <g id="Off" transform="translate(17 1.388)">
      <path id="Path_37903" data-name="Path 37903" d="M44.043,31.9H28.6a5.31,5.31,0,0,1-5.3-5.321V6.221A5.31,5.31,0,0,1,28.6.9H42.4a5.31,5.31,0,0,1,5.3,5.321V25.8a1.4,1.4,0,1,1-2.792,0V6.221A2.506,2.506,0,0,0,42.4,3.7H28.6a2.506,2.506,0,0,0-2.513,2.52V26.579A2.506,2.506,0,0,0,28.6,29.1H44.043a1.4,1.4,0,1,1,0,2.8Z" transform="translate(-1801.3 471.909)" fill="#fff"/>
      <path id="Path_37904" data-name="Path 37904" d="M50.214,40.162A4.209,4.209,0,0,1,53.9,39.3a3.43,3.43,0,0,1,2.736,3.992,3.648,3.648,0,0,1-.782,1.619c-1.591,1.7-3.406,3.266-5.165,4.83a1.068,1.068,0,0,1-1.005,0c-1.731-1.563-3.462-3.127-5.109-4.774a3.253,3.253,0,0,1,.084-4.579,3.979,3.979,0,0,1,4.941-.614C49.795,39.883,49.962,39.995,50.214,40.162Z" transform="translate(-1815.985 444.366)" fill="#9a9a9a"/>
    </g>
  </g>
</svg>
