<svg xmlns="http://www.w3.org/2000/svg" width="35.88" height="30.838" viewBox="0 0 35.88 30.838">
  <g id="slots" transform="translate(1784 -471.196)">
    <g id="Off" transform="translate(0 1.111)">
      <path id="Path_38181" data-name="Path 38181" d="M37.51,50.086H22.149A1.453,1.453,0,0,1,20.7,48.637V43.449A1.453,1.453,0,0,1,22.149,42H37.51a1.453,1.453,0,0,1,1.449,1.449v5.188a1.453,1.453,0,0,1-1.449,1.449Z" transform="translate(-1798.846 439.156)" fill="#9a9a9a"/>
      <rect id="Rectangle_20686" data-name="Rectangle 20686" width="2.695" height="17.651" transform="translate(-1774.841 476.026)" fill="#fff"/>
      <rect id="Rectangle_20687" data-name="Rectangle 20687" width="2.695" height="17.651" transform="translate(-1765.712 476.287)" fill="#fff"/>
      <line id="Line_20" data-name="Line 20" y2="12.26" transform="translate(-1750.757 475.099)" fill="#302f2f"/>
      <path id="Path_38182" data-name="Path 38182" d="M111.649,31.258a1.435,1.435,0,0,1-1.449-1.449V17.549a1.45,1.45,0,1,1,2.9,0v12.26a1.435,1.435,0,0,1-1.451,1.449Z" transform="translate(-1862.406 457.55)" fill="#fff"/>
      <circle id="Ellipse_431" data-name="Ellipse 431" cx="2.637" cy="2.637" r="2.637" transform="translate(-1753.394 471.302)" fill="#9a9a9a"/>
      <path id="Path_38183" data-name="Path 38183" d="M24.643,42.666H6.007A5.5,5.5,0,0,1,.5,37.16V28.407A5.5,5.5,0,0,1,6.007,22.9H24.643a5.511,5.511,0,0,1,5.507,5.449l.029,1.478a1.473,1.473,0,0,1-1.42,1.478,1.454,1.454,0,0,1-1.478-1.42l-.029-1.478a2.629,2.629,0,0,0-2.608-2.579H6.007A2.6,2.6,0,0,0,3.4,28.436V37.16a2.6,2.6,0,0,0,2.608,2.608H24.643a2.616,2.616,0,0,0,2.608-2.608V35.942A1.435,1.435,0,0,1,28.7,34.493h0a1.453,1.453,0,0,1,1.449,1.449V37.16a5.5,5.5,0,0,1-5.506,5.506Z" transform="translate(-1784.5 452.72)" fill="#fff"/>
      <path id="Path_38184" data-name="Path 38184" d="M35.849,11.046h-2.9V9.307A2.6,2.6,0,0,0,30.342,6.7H18.807A2.6,2.6,0,0,0,16.2,9.307v1.739H13.3V9.307A5.5,5.5,0,0,1,18.807,3.8H30.371a5.5,5.5,0,0,1,5.507,5.507v1.739Z" transform="translate(-1793.59 466.285)" fill="#fff"/>
      <path id="Path_38185" data-name="Path 38185" d="M29.771,92.446H18.207A5.5,5.5,0,0,1,12.7,86.939V85.2h2.9v1.739a2.6,2.6,0,0,0,2.608,2.608H29.771a2.6,2.6,0,0,0,2.608-2.608V85.2h2.9v1.739a5.5,5.5,0,0,1-5.508,5.507Z" transform="translate(-1793.164 408.477)" fill="#fff"/>
    </g>
  </g>
</svg>
