<svg xmlns="http://www.w3.org/2000/svg" width="31" height="31" viewBox="0 0 31 31">
  <g id="sports" transform="translate(1782 -471.196)">
    <g id="Off" transform="translate(0 1.111)">
      <path id="Path_38193" data-name="Path 38193" d="M37.735,39.9a1.78,1.78,0,0,1-.7-2.206l.949-2.15a1.73,1.73,0,0,1,1.452-1.033l2.318-.223h.168a1.793,1.793,0,0,1,1.731,1.34l.112.475-.112.2a9.832,9.832,0,0,1-5.11,3.881l-.279.084Zm-5.278.251a9.71,9.71,0,0,1-4.97-3.714l-.14-.223.2-.754a1.761,1.761,0,0,1,1.7-1.34h.168l2.346.223A1.683,1.683,0,0,1,33.185,35.4l.949,2.15a1.74,1.74,0,0,1-.7,2.206l-.726.447Zm4.189-6H34.412A1.621,1.621,0,0,1,32.9,33.063l-.7-2.15a1.634,1.634,0,0,1,.558-1.787l1.815-1.312a1.639,1.639,0,0,1,1.871,0l1.815,1.312a1.633,1.633,0,0,1,.586,1.787l-.7,2.122a1.583,1.583,0,0,1-1.5,1.117Zm-10.583-2.6-.363-.363V30.8a9.8,9.8,0,0,1,1.955-5.864l.168-.223h.866a1.771,1.771,0,0,1,1.759,1.48l.363,2.318a1.7,1.7,0,0,1-.642,1.647l-1.815,1.48a1.754,1.754,0,0,1-1.117.391h0a1.746,1.746,0,0,1-1.173-.475Zm16.67.112-1.843-1.48a1.717,1.717,0,0,1-.642-1.647l.363-2.318a1.742,1.742,0,0,1,1.731-1.48l.81.028.168.223a9.68,9.68,0,0,1,1.955,5.864v.475L45,31.583a1.762,1.762,0,0,1-1.2.475h0a1.9,1.9,0,0,1-1.061-.391Zm-7.2-5.752a1.758,1.758,0,0,1-.921-.251L32.6,24.435a1.74,1.74,0,0,1-.7-2.206l.279-.642.251-.084a9.808,9.808,0,0,1,6.2,0l.223.084c.223.084.307.586.391.754a1.8,1.8,0,0,1-.782,2.178l-2.038,1.145a1.661,1.661,0,0,1-.894.251Z" transform="translate(-1802.027 454.733)" fill="#9a9a9a"/>
      <path id="Path_38194" data-name="Path 38194" d="M20.027,31.3h-.055A15.5,15.5,0,1,1,35.5,15.8a1.374,1.374,0,0,1-2.748,0A12.752,12.752,0,1,0,20,28.532a13.287,13.287,0,0,0,11.075-6.587l.577-1.218a1.37,1.37,0,0,1,1.841-.637,1.389,1.389,0,0,1,.632,1.854l-.66,1.356A16.088,16.088,0,0,1,20.027,31.3Z" transform="translate(-1786.5 469.785)" fill="#fff"/>
    </g>
  </g>
</svg>
